<svg xmlns="http://www.w3.org/2000/svg" width="741.914" height="287.869" viewBox="0 0 741.914 287.869">
  <g id="design_decisions" transform="translate(0 -266.993)">
    <path id="Path_32" data-name="Path 32" d="M0,0H741.914V287.869H0Z" transform="translate(0 266.993)" fill="#edebc6"/>
    <rect id="Rectangle_112" data-name="Rectangle 112" width="18" height="25.965" rx="8" transform="translate(41.397 312.137)" fill="#994276"/>
    <rect id="Rectangle_113" data-name="Rectangle 113" width="19" height="25.965" rx="8" transform="translate(90.439 312.137)" fill="#4e9da1"/>
    <rect id="Rectangle_114" data-name="Rectangle 114" width="18" height="25.965" rx="8" transform="translate(147.841 312.137)" fill="#de6530"/>
    <rect id="Rectangle_115" data-name="Rectangle 115" width="18" height="25.965" rx="8" transform="translate(199.11 312.137)" fill="#192033"/>
    <rect id="Rectangle_116" data-name="Rectangle 116" width="18" height="25.965" rx="8" transform="translate(252.146 312.137)" fill="#69727b"/>
    <text id="Roboto" transform="translate(41.397 379.137)" fill="#192033" font-size="17" font-family="Roboto-Regular, Roboto"><tspan x="0" y="0">Roboto</tspan></text>
    <text id="Multiple_colors_been_taken_to_create_an_artistic_ambience_inside_the_app_same_as_can_be_seen_in_logo._The_word_Art_Kart_signifies_the_dual_usage_of_the_app_as_an_networking_art_and_e-commerce_kart_." data-name="Multiple colors been taken to create an artistic ambience inside the app, same as can be seen in logo. 


The word &apos;Art&amp;Kart&apos; signifies the dual usage of the app, as an networking (art) and e-commerce (kart)." transform="translate(295 307)" fill="#192033" font-size="20" font-family="Roboto-Regular, Roboto"><tspan x="0" y="21">Multiple colors been taken to create an artistic </tspan><tspan x="0" y="47">ambience inside the app, same as can be seen </tspan><tspan x="0" y="73">in logo. </tspan><tspan x="0" y="99"></tspan><tspan x="0" y="125"></tspan><tspan x="0" y="151">The word &apos;Art&amp;Kart&apos; signifies the dual usage of </tspan><tspan x="0" y="177">the app, as an networking (art) and e-</tspan><tspan x="0" y="203">commerce (kart).</tspan></text>
    <text id="Roboto_Slab" data-name="Roboto Slab" transform="translate(159.663 380.137)" fill="#192033" font-size="18" font-family="RobotoSlab-Regular, Roboto Slab"><tspan x="0" y="0">Roboto Slab</tspan></text>
    <g id="Logo_symbol" transform="translate(34.262 418.825)">
      <path id="Path_10" data-name="Path 10" d="M38.868-1.212l25.6,23.23L61.985,32.657Z" transform="translate(-14.952 46.582)" fill="#4e9da1"/>
      <path id="Path_11" data-name="Path 11" d="M23.409-5.806l22.867,33.5-8.45-4.378Z" transform="translate(0.663 51.293)" fill="#994276"/>
      <path id="Path_12" data-name="Path 12" d="M58.758-25.6,73.265,3.466,69.474,5.241Z" transform="translate(-34.679 70.981)" fill="#5bbcc0"/>
      <path id="Path_13" data-name="Path 13" d="M72.8-25.66,79.924-.108,70.587-1.827Z" transform="translate(-45.64 83.756)" fill="#994276"/>
      <path id="Path_14" data-name="Path 14" d="M104.194-25.237l-3.44,26.289L94.366-11.724Z" transform="translate(-79.246 88.881)" fill="#4e9da1"/>
      <path id="Path_18" data-name="Path 18" d="M85.617,39.678l-4.63,1.927-4.066-4.032Z" transform="translate(-31.822 -7.503)" fill="#8ed0e8"/>
      <path id="Path_19" data-name="Path 19" d="M37.793,16.641s-.648,1.065-2.519,3.846-4.861,7.4-4.861,7.4l2.713-9.352Z" transform="translate(15.986 15.519)" fill="#994276"/>
      <path id="Path_20" data-name="Path 20" d="M19.457,25.712l-8.249,9.154,7.47-11.321Z" transform="translate(35.086 8.615)" fill="#ebaa44"/>
      <path id="Path_21" data-name="Path 21" d="M5.7,86.811,4.934,84.7l19.149-.8Z" transform="translate(48.804 -52.511)" fill="#994276"/>
      <ellipse id="Ellipse_5" data-name="Ellipse 5" cx="0.723" cy="0.723" rx="0.723" ry="0.723" transform="translate(49.419 34.435)" fill="#fff"/>
      <path id="Path_5" data-name="Path 5" d="M52.9,0,72.531,36.171h-21.7Z" transform="translate(-33.578)" fill="#994276"/>
      <path id="Path_6" data-name="Path 6" d="M40.221-7.866l39,27.741L66.034,30.982Z" transform="translate(-40.221 16.297)" fill="#de6530"/>
      <path id="Path_8" data-name="Path 8" d="M20.1-.555,17.359,20.017,6.808,10.757Z" transform="translate(18.827 36.566)" fill="#ebaa44"/>
      <path id="Path_9" data-name="Path 9" d="M-7.3-7.555l1.312,17.679-4.051,2.716Z" transform="translate(46.135 43.566)" fill="#4e9da1"/>
      <path id="Path_16" data-name="Path 16" d="M-33.543,12.6l7.823,7.287-6.505,10.518Z" transform="translate(72.311 23.327)" fill="#994276"/>
      <path id="Path_15" data-name="Path 15" d="M-51.472,42.84l4.1-2.821,17.107,8.732-10.909,3.472Z" transform="translate(87.454 13.557)" fill="#ebaa44"/>
      <path id="Path_7" data-name="Path 7" d="M-28.81,44.675,5.012,53.194-7.957,64.511Z" transform="translate(33.695 -16.973)" fill="#5bbcc0"/>
      <path id="Path_17" data-name="Path 17" d="M-71.217,21.518l10-3.291,4.075,3.9-2.676,9.289Z" transform="translate(106.328 11.844)" fill="#4e9da1"/>
      <path id="Path_10-2" data-name="Path 10" d="M38.868-1.212l25.6,23.23L61.985,32.657Z" transform="translate(-14.952 46.582)" fill="#4e9da1"/>
      <path id="Path_11-2" data-name="Path 11" d="M23.409-5.806l22.867,33.5-8.45-4.378Z" transform="translate(0.663 51.293)" fill="#994276"/>
      <path id="Path_12-2" data-name="Path 12" d="M58.758-25.6,73.265,3.466,69.474,5.241Z" transform="translate(-34.679 70.981)" fill="#5bbcc0"/>
      <path id="Path_13-2" data-name="Path 13" d="M72.8-25.66,79.924-.108,70.587-1.827Z" transform="translate(-45.64 83.756)" fill="#994276"/>
      <path id="Path_14-2" data-name="Path 14" d="M104.194-25.237l-3.44,26.289L94.366-11.724Z" transform="translate(-79.246 88.881)" fill="#4e9da1"/>
      <path id="Path_18-2" data-name="Path 18" d="M85.617,39.678l-4.63,1.927-4.066-4.032Z" transform="translate(-31.822 -7.503)" fill="#8ed0e8"/>
      <path id="Path_19-2" data-name="Path 19" d="M37.793,16.641s-.648,1.065-2.519,3.846-4.861,7.4-4.861,7.4l2.713-9.352Z" transform="translate(15.986 15.519)" fill="#994276"/>
      <path id="Path_20-2" data-name="Path 20" d="M19.457,25.712l-8.249,9.154,7.47-11.321Z" transform="translate(35.086 8.615)" fill="#ebaa44"/>
      <path id="Path_21-2" data-name="Path 21" d="M5.7,86.811,4.934,84.7l19.149-.8Z" transform="translate(48.804 -52.511)" fill="#994276"/>
      <ellipse id="Ellipse_5-2" data-name="Ellipse 5" cx="0.723" cy="0.723" rx="0.723" ry="0.723" transform="translate(49.419 34.435)" fill="#fff"/>
      <path id="Path_5-2" data-name="Path 5" d="M52.9,0,72.531,36.171h-21.7Z" transform="translate(-33.578)" fill="#994276"/>
      <path id="Path_6-2" data-name="Path 6" d="M40.221-7.866l39,27.741L66.034,30.982Z" transform="translate(-40.221 16.297)" fill="#de6530"/>
      <path id="Path_8-2" data-name="Path 8" d="M20.1-.555,17.359,20.017,6.808,10.757Z" transform="translate(18.827 36.566)" fill="#ebaa44"/>
      <path id="Path_9-2" data-name="Path 9" d="M-7.3-7.555l1.312,17.679-4.051,2.716Z" transform="translate(46.135 43.566)" fill="#4e9da1"/>
      <path id="Path_16-2" data-name="Path 16" d="M-33.543,12.6l7.823,7.287-6.505,10.518Z" transform="translate(72.311 23.327)" fill="#994276"/>
      <path id="Path_15-2" data-name="Path 15" d="M-51.472,42.84l4.1-2.821,17.107,8.732-10.909,3.472Z" transform="translate(87.454 13.557)" fill="#ebaa44"/>
      <path id="Path_7-2" data-name="Path 7" d="M-28.81,44.675,5.012,53.194-7.957,64.511Z" transform="translate(33.695 -16.973)" fill="#5bbcc0"/>
      <path id="Path_17-2" data-name="Path 17" d="M-71.217,21.518l10-3.291,4.075,3.9-2.676,9.289Z" transform="translate(106.328 11.844)" fill="#4e9da1"/>
    </g>
    <g id="Logo_text" transform="translate(118.53 454.292)">
      <text id="ART_KART" data-name="ART &amp; KART" transform="translate(0 20)" fill="#333d5a" font-size="19" font-family="RobotoSlab-Bold, Roboto Slab" font-weight="700"><tspan x="0" y="0">ART &amp; KART</tspan></text>
    </g>
  </g>
</svg>
