<svg xmlns="http://www.w3.org/2000/svg" width="200" height="195" viewBox="0 0 200 195">
  <g id="Portfolio_logo" transform="translate(-80 -130)">
    <ellipse id="Bg" cx="100" cy="97.5" rx="100" ry="97.5" transform="translate(80 130)"/>
    <path id="D" d="M-294.2-161H-317v-50h20.882l35.23,25.7L-294.2-161Z" transform="translate(513 414)" fill="#fff"/>
    <path id="C" d="M-289-165h-28v-50h28a25,25,0,0,1,25,25,25,25,0,0,1-25,25Z" transform="translate(-162 38) rotate(180)" fill="#fff"/>
    <path id="K" d="M-292-165a24.84,24.84,0,0,1-9.732-1.965,24.913,24.913,0,0,1-7.946-5.358,24.915,24.915,0,0,1-5.358-7.947A24.83,24.83,0,0,1-317-190a24.83,24.83,0,0,1,1.965-9.731,24.915,24.915,0,0,1,5.358-7.947,24.913,24.913,0,0,1,7.946-5.358A24.855,24.855,0,0,1-292-215a24.775,24.775,0,0,1,15.134,5.1l-1.013-.352L-290-190l10.961,20.15,1.162.482A24.863,24.863,0,0,1-292-165Z" transform="translate(473 418)" fill="#ebac19"/>
  </g>
</svg>
