<svg xmlns="http://www.w3.org/2000/svg" width="756" height="737.1" viewBox="0 0 756 737.1">
  <g id="Portfolio_logo" transform="translate(-302.4 -491.4)">
    <ellipse id="Bg" cx="378" cy="368.55" rx="378" ry="368.55" transform="translate(302.4 491.4)"/>
    <path id="D" d="M-1112.076-608.58h-86.184v-189h78.934l133.169,97.146Z" transform="translate(1939.14 1564.92)" fill="#fff"/>
    <path id="C" d="M-1092.42-623.7h-105.84v-189h105.84a94.5,94.5,0,0,1,94.5,94.5A94.5,94.5,0,0,1-1092.42-623.7Z" transform="translate(-612.36 143.64) rotate(180)" fill="#fff"/>
    <path id="K" d="M-1103.76-623.7a93.9,93.9,0,0,1-36.787-7.428,94.173,94.173,0,0,1-30.036-20.253,94.179,94.179,0,0,1-20.253-30.04,93.858,93.858,0,0,1-7.424-36.779,93.855,93.855,0,0,1,7.428-36.783,94.181,94.181,0,0,1,20.253-30.04,94.168,94.168,0,0,1,30.036-20.253,93.952,93.952,0,0,1,36.783-7.424,93.651,93.651,0,0,1,57.207,19.278l-3.829-1.331L-1096.2-718.2l41.432,76.167,4.392,1.822A93.982,93.982,0,0,1-1103.76-623.7Z" transform="translate(1787.94 1580.04)" fill="#ebac19"/>
  </g>
</svg>
